<mxfile host="app.diagrams.net" agent="Mozilla/5.0 (Windows NT 10.0; Win64; x64) AppleWebKit/537.36 (KHTML, like Gecko) Chrome/139.0.0.0 Safari/537.36" version="28.0.7">
  <diagram name="Page-1" id="hrNRrw5DGQtvwrWz3fig">
    <mxGraphModel dx="1281" dy="614" grid="1" gridSize="10" guides="1" tooltips="1" connect="1" arrows="1" fold="1" page="1" pageScale="1" pageWidth="850" pageHeight="1100" background="#FFFFFF" math="0" shadow="0">
      <root>
        <mxCell id="0" />
        <mxCell id="1" parent="0" />
        <mxCell id="9Wu2cP8Ji0wa0IlKkzQK-1" value="Start" style="ellipse;whiteSpace=wrap;html=1;fillColor=#FFB570;" parent="1" vertex="1">
          <mxGeometry x="365" y="110" width="125" height="50" as="geometry" />
        </mxCell>
        <mxCell id="9Wu2cP8Ji0wa0IlKkzQK-2" value="&lt;b&gt;&lt;u&gt;Abstraction flowchart of QR Payment&lt;/u&gt;&lt;/b&gt;" style="text;html=1;align=center;verticalAlign=middle;whiteSpace=wrap;rounded=0;" parent="1" vertex="1">
          <mxGeometry x="310" y="70" width="230" height="20" as="geometry" />
        </mxCell>
        <mxCell id="9Wu2cP8Ji0wa0IlKkzQK-3" value="Open App and Scan QR" style="rounded=0;whiteSpace=wrap;html=1;fillColor=#52B6FF;" parent="1" vertex="1">
          <mxGeometry x="347.5" y="190" width="160" height="30" as="geometry" />
        </mxCell>
        <mxCell id="9Wu2cP8Ji0wa0IlKkzQK-4" value="Verify and Authenticate&amp;nbsp;" style="rounded=0;whiteSpace=wrap;html=1;fillColor=#52B6FF;" parent="1" vertex="1">
          <mxGeometry x="345" y="310" width="165" height="30" as="geometry" />
        </mxCell>
        <mxCell id="9Wu2cP8Ji0wa0IlKkzQK-5" value="Make Payment" style="rounded=0;whiteSpace=wrap;html=1;fillColor=#52B6FF;" parent="1" vertex="1">
          <mxGeometry x="350" y="370" width="155" height="30" as="geometry" />
        </mxCell>
        <mxCell id="9Wu2cP8Ji0wa0IlKkzQK-6" value="Show Result Failed" style="shape=parallelogram;perimeter=parallelogramPerimeter;whiteSpace=wrap;html=1;fixedSize=1;fillColor=#E9FF58;" parent="1" vertex="1">
          <mxGeometry x="197.5" y="430" width="140" height="60" as="geometry" />
        </mxCell>
        <mxCell id="9Wu2cP8Ji0wa0IlKkzQK-7" value="End" style="ellipse;whiteSpace=wrap;html=1;fillColor=#FFB570;" parent="1" vertex="1">
          <mxGeometry x="378" y="590" width="95" height="40" as="geometry" />
        </mxCell>
        <mxCell id="9Wu2cP8Ji0wa0IlKkzQK-8" value="" style="endArrow=classic;html=1;rounded=0;entryX=0.5;entryY=0;entryDx=0;entryDy=0;exitX=0.5;exitY=1;exitDx=0;exitDy=0;" parent="1" source="9Wu2cP8Ji0wa0IlKkzQK-1" target="9Wu2cP8Ji0wa0IlKkzQK-3" edge="1">
          <mxGeometry width="50" height="50" relative="1" as="geometry">
            <mxPoint x="400" y="330" as="sourcePoint" />
            <mxPoint x="450" y="280" as="targetPoint" />
          </mxGeometry>
        </mxCell>
        <mxCell id="9Wu2cP8Ji0wa0IlKkzQK-10" value="" style="endArrow=classic;html=1;rounded=0;entryX=0.5;entryY=0;entryDx=0;entryDy=0;exitX=0.5;exitY=1;exitDx=0;exitDy=0;" parent="1" source="9Wu2cP8Ji0wa0IlKkzQK-4" target="9Wu2cP8Ji0wa0IlKkzQK-5" edge="1">
          <mxGeometry width="50" height="50" relative="1" as="geometry">
            <mxPoint x="400" y="330" as="sourcePoint" />
            <mxPoint x="450" y="280" as="targetPoint" />
          </mxGeometry>
        </mxCell>
        <mxCell id="9Wu2cP8Ji0wa0IlKkzQK-12" value="" style="endArrow=classic;html=1;rounded=0;entryX=0;entryY=0.5;entryDx=0;entryDy=0;exitX=0.5;exitY=1;exitDx=0;exitDy=0;" parent="1" source="9Wu2cP8Ji0wa0IlKkzQK-6" target="9Wu2cP8Ji0wa0IlKkzQK-7" edge="1">
          <mxGeometry width="50" height="50" relative="1" as="geometry">
            <mxPoint x="400" y="330" as="sourcePoint" />
            <mxPoint x="450" y="280" as="targetPoint" />
            <Array as="points">
              <mxPoint x="270" y="610" />
            </Array>
          </mxGeometry>
        </mxCell>
        <mxCell id="9Wu2cP8Ji0wa0IlKkzQK-13" value="&lt;b&gt;By Aarohi Dahal&lt;/b&gt;&lt;div&gt;&lt;b&gt;Class: 7&lt;/b&gt;&lt;/div&gt;" style="text;html=1;align=center;verticalAlign=middle;whiteSpace=wrap;rounded=0;" parent="1" vertex="1">
          <mxGeometry x="550" y="330" width="110" height="30" as="geometry" />
        </mxCell>
        <mxCell id="A20tzYM0jEt7tTao0hPR-2" value="Enter Payment Amount" style="shape=parallelogram;perimeter=parallelogramPerimeter;whiteSpace=wrap;html=1;fixedSize=1;fillColor=#E9FF58;" vertex="1" parent="1">
          <mxGeometry x="337.5" y="250" width="180" height="40" as="geometry" />
        </mxCell>
        <mxCell id="A20tzYM0jEt7tTao0hPR-3" value="Is Payment Successful?" style="rhombus;whiteSpace=wrap;html=1;fillColor=#5AFF64;" vertex="1" parent="1">
          <mxGeometry x="387.5" y="420" width="80" height="80" as="geometry" />
        </mxCell>
        <mxCell id="A20tzYM0jEt7tTao0hPR-4" value="Show Result &quot;Payment Successful&quot;&amp;nbsp;" style="shape=parallelogram;perimeter=parallelogramPerimeter;whiteSpace=wrap;html=1;fixedSize=1;fillColor=#E9FF58;" vertex="1" parent="1">
          <mxGeometry x="530" y="430" width="170" height="60" as="geometry" />
        </mxCell>
        <mxCell id="A20tzYM0jEt7tTao0hPR-5" value="" style="endArrow=classic;html=1;rounded=0;entryX=1;entryY=0.5;entryDx=0;entryDy=0;exitX=0;exitY=0.5;exitDx=0;exitDy=0;" edge="1" parent="1" source="A20tzYM0jEt7tTao0hPR-3" target="9Wu2cP8Ji0wa0IlKkzQK-6">
          <mxGeometry relative="1" as="geometry">
            <mxPoint x="380" y="320" as="sourcePoint" />
            <mxPoint x="480" y="320" as="targetPoint" />
          </mxGeometry>
        </mxCell>
        <mxCell id="A20tzYM0jEt7tTao0hPR-6" value="No" style="edgeLabel;resizable=0;html=1;;align=center;verticalAlign=middle;" connectable="0" vertex="1" parent="A20tzYM0jEt7tTao0hPR-5">
          <mxGeometry relative="1" as="geometry" />
        </mxCell>
        <mxCell id="A20tzYM0jEt7tTao0hPR-7" value="" style="endArrow=classic;html=1;rounded=0;entryX=0;entryY=0.5;entryDx=0;entryDy=0;exitX=1;exitY=0.5;exitDx=0;exitDy=0;" edge="1" parent="1" source="A20tzYM0jEt7tTao0hPR-3" target="A20tzYM0jEt7tTao0hPR-4">
          <mxGeometry relative="1" as="geometry">
            <mxPoint x="380" y="320" as="sourcePoint" />
            <mxPoint x="480" y="320" as="targetPoint" />
          </mxGeometry>
        </mxCell>
        <mxCell id="A20tzYM0jEt7tTao0hPR-8" value="Yes" style="edgeLabel;resizable=0;html=1;;align=center;verticalAlign=middle;" connectable="0" vertex="1" parent="A20tzYM0jEt7tTao0hPR-7">
          <mxGeometry relative="1" as="geometry" />
        </mxCell>
        <mxCell id="A20tzYM0jEt7tTao0hPR-9" value="" style="endArrow=classic;html=1;rounded=0;entryX=1;entryY=0.5;entryDx=0;entryDy=0;exitX=0.5;exitY=1;exitDx=0;exitDy=0;" edge="1" parent="1" source="A20tzYM0jEt7tTao0hPR-4" target="9Wu2cP8Ji0wa0IlKkzQK-7">
          <mxGeometry width="50" height="50" relative="1" as="geometry">
            <mxPoint x="400" y="350" as="sourcePoint" />
            <mxPoint x="450" y="300" as="targetPoint" />
            <Array as="points">
              <mxPoint x="620" y="610" />
            </Array>
          </mxGeometry>
        </mxCell>
        <mxCell id="A20tzYM0jEt7tTao0hPR-10" value="" style="endArrow=classic;html=1;rounded=0;exitX=0.5;exitY=1;exitDx=0;exitDy=0;entryX=0.5;entryY=0;entryDx=0;entryDy=0;" edge="1" parent="1" source="9Wu2cP8Ji0wa0IlKkzQK-3" target="A20tzYM0jEt7tTao0hPR-2">
          <mxGeometry width="50" height="50" relative="1" as="geometry">
            <mxPoint x="400" y="350" as="sourcePoint" />
            <mxPoint x="430" y="260" as="targetPoint" />
          </mxGeometry>
        </mxCell>
        <mxCell id="A20tzYM0jEt7tTao0hPR-11" value="" style="endArrow=classic;html=1;rounded=0;exitX=0.5;exitY=1;exitDx=0;exitDy=0;entryX=0.5;entryY=0;entryDx=0;entryDy=0;" edge="1" parent="1" source="A20tzYM0jEt7tTao0hPR-2" target="9Wu2cP8Ji0wa0IlKkzQK-4">
          <mxGeometry width="50" height="50" relative="1" as="geometry">
            <mxPoint x="400" y="350" as="sourcePoint" />
            <mxPoint x="450" y="300" as="targetPoint" />
          </mxGeometry>
        </mxCell>
      </root>
    </mxGraphModel>
  </diagram>
</mxfile>
